<?xml version="1.0" encoding="UTF-8" standalone="no"?> <svg enable-background="new 0 0 32 32" height="512" viewBox="0 0 32 32" width="512" xmlns="http://www.w3.org/2000/svg"><g id="BG"><path d="m26 32h-20c-3.314 0-6-2.686-6-6v-20c0-3.314 2.686-6 6-6h20c3.314 0 6 2.686 6 6v20c0 3.314-2.686 6-6 6z" fill="#ffe6e2"/></g><g id="bold"><path d="m20.068 10.815c-.993-.968-2.532-1.528-4.086-1.479-1.953.052-2.679.803-2.949 1.363-1.014.214-2.367 1.05-2.367 3.209v2.399c0 .826.158 1.63.473 2.397.102.243.352.709.363.729.931 1.599 2.193 3.234 4.497 3.234 2.245 0 3.466-1.523 4.46-3.186.029-.051.284-.508.404-.79.311-.766.469-1.571.469-2.394v-2.399c.001-1.211-.436-2.277-1.264-3.083zm-.435 7.364c-.094.219-.327.634-.327.634-.931 1.556-1.809 2.521-3.307 2.521-1.534 0-2.447-1.028-3.334-2.551-.003-.004-.213-.394-.296-.59-.245-.601-.369-1.235-.369-1.886v-.479l.392-.175c.063-.028 1.159-.53 1.73-1.558.611.85 1.697 1.869 3.398 1.869.188 0 .359-.105.445-.271.064-.124.072-.266.027-.394.32.235.676.397 1.053.397.203 0 .288-.004.375-.008.099-.005.213-.01.58-.008v.616c0 .651-.125 1.287-.367 1.883z" fill="#fd907e"/><path d="m16.001 20c-.669 0-1.296-.268-1.767-.754-.192-.199-.187-.515.012-.707s.515-.187.707.011c.561.58 1.534.581 2.096 0 .193-.198.51-.203.707-.011.199.192.204.508.012.707-.472.486-1.099.754-1.767.754z" fill="#fd907e"/><g fill="#fc573b"><path d="m23.333 13.333c-.368 0-.667-.299-.667-.667v-2.666c0-.368-.299-.667-.667-.667h-2.667c-.368 0-.667-.299-.667-.667s.3-.666.668-.666h2.667c1.103 0 2 .897 2 2v2.667c0 .368-.298.666-.667.666z"/><path d="m8.667 13.333c-.369 0-.667-.298-.667-.666v-2.667c0-1.103.897-2 2-2h2.667c.368 0 .667.299.667.667s-.299.667-.667.667h-2.667c-.368 0-.667.299-.667.667v2.667c0 .367-.298.665-.666.665z"/><path d="m22 24h-2.667c-.368 0-.667-.299-.667-.667s.299-.667.667-.667h2.667c.368 0 .667-.299.667-.667v-2.667c0-.368.299-.667.667-.667s.666.3.666.668v2.667c0 1.103-.897 2-2 2z"/><path d="m12.667 24h-2.667c-1.103 0-2-.897-2-2v-2.667c0-.368.299-.667.667-.667s.667.299.667.667v2.667c0 .368.299.667.667.667h2.667c.368 0 .667.299.667.667s-.3.666-.668.666z"/></g></g></svg>